<svg xmlns="http://www.w3.org/2000/svg" viewBox="0 0 480 480"><circle cx="341.632" cy="136.468" r="136" fill="#fcb641"/><path d="M89.992 479.532A7.979 7.979 0 0186 478.46c-3.832-2.208-5.136-7.104-2.928-10.928l28-48.496c2.208-3.824 7.096-5.152 10.928-2.928 3.832 2.208 5.136 7.104 2.928 10.928l-28 48.496a7.987 7.987 0 01-6.936 4zm48 0A7.979 7.979 0 01134 478.46c-3.832-2.208-5.136-7.104-2.928-10.928l28-48.496c2.208-3.824 7.088-5.152 10.928-2.928 3.832 2.208 5.136 7.104 2.928 10.928l-28 48.496a7.987 7.987 0 01-6.936 4zm48 0A7.979 7.979 0 01182 478.46c-3.832-2.208-5.136-7.104-2.928-10.928l28-48.496c2.208-3.824 7.088-5.152 10.928-2.928 3.832 2.208 5.136 7.104 2.928 10.928l-28 48.496a7.987 7.987 0 01-6.936 4zm48 0A7.979 7.979 0 01230 478.46c-3.832-2.208-5.136-7.104-2.928-10.928l28-48.496c2.208-3.824 7.096-5.152 10.928-2.928 3.832 2.208 5.136 7.104 2.928 10.928l-28 48.496a7.987 7.987 0 01-6.936 4zm48 0A7.979 7.979 0 01278 478.46c-3.832-2.208-5.136-7.104-2.928-10.928l28-48.496c2.208-3.824 7.088-5.152 10.928-2.928 3.832 2.208 5.136 7.104 2.928 10.928l-28 48.496a7.987 7.987 0 01-6.936 4zm48 0A7.979 7.979 0 01326 478.46c-3.832-2.208-5.136-7.104-2.928-10.928l28-48.496c2.208-3.824 7.088-5.152 10.928-2.928 3.832 2.208 5.136 7.104 2.928 10.928l-28 48.496a7.987 7.987 0 01-6.936 4zm48 0A7.979 7.979 0 01374 478.46c-3.832-2.208-5.136-7.104-2.928-10.928l28-48.496c2.216-3.824 7.096-5.152 10.928-2.928 3.832 2.208 5.136 7.104 2.928 10.928l-28 48.496a7.987 7.987 0 01-6.936 4zm48.216-204.248H383.56c.744-8 1.24-8.688 1.256-13.472.128-42.672-28.36-79.952-70.032-89.136-23.752-5.232-46.424-1.368-65.184 8.76-22.888-34.064-60.808-57.04-104.272-59.696-5.592-.768-11.256-1.224-17.056-1.224C57.432 120.516 0 179.78 0 252.836c0 38.072 15.688 72.304 40.648 96.44 22.072 24.488 52.72 40.312 89.008 42.944 0 0 295.432 1.464 296.552 1.464 29.712 0 53.792-27.208 53.792-59.208 0-31.984-24.088-59.192-53.792-59.192z" fill="#92c7d3"/></svg>