<svg xmlns="http://www.w3.org/2000/svg" viewBox="0 0 480 480"><ellipse cx="350.968" cy="127.968" rx="126.968" ry="127.968" fill="#fcb641"/><g fill="#bedde5"><circle cx="80" cy="408" r="24"/><circle cx="240" cy="456" r="24"/><circle cx="384" cy="408" r="24"/></g><path d="M426.208 235.448H383.56c.744-7.768 1.24-8.768 1.256-13.408.128-41.424-28.36-77.776-70.032-86.688-23.752-5.08-46.424-1.408-65.184 8.416-22.888-33.072-60.808-55.408-104.272-57.992-5.592-.744-11.256-1.208-17.056-1.208C57.432 84.576 0 142.096 0 213.016c0 36.952 15.688 70.184 40.648 93.608 22.072 23.768 52.72 39.128 89.008 41.688 0 0 295.432 1.424 296.552 1.424 29.712 0 53.792-26.088 53.792-57.144s-24.088-57.144-53.792-57.144z" fill="#92c7d3"/></svg>