<?xml version="1.0" encoding="UTF-8"?>
<svg xmlns="http://www.w3.org/2000/svg" xmlns:xlink="http://www.w3.org/1999/xlink" width="24pt" height="24pt" viewBox="0 0 24 24" version="1.1">
<g id="surface1">
<path style=" stroke:none;fill-rule:nonzero;fill:rgb(0%,0%,0%);fill-opacity:1;" d="M 17.441406 10.269531 C 16.488281 10.269531 15.710938 11.046875 15.710938 12 C 15.710938 12.953125 16.488281 13.730469 17.441406 13.730469 C 18.398438 13.730469 19.175781 12.953125 19.175781 12 C 19.175781 11.046875 18.398438 10.269531 17.441406 10.269531 Z M 17.441406 10.269531 "/>
<path style=" stroke:none;fill-rule:nonzero;fill:rgb(0%,0%,0%);fill-opacity:1;" d="M 6.558594 10.269531 C 5.601562 10.269531 4.824219 11.046875 4.824219 12 C 4.824219 12.953125 5.601562 13.730469 6.558594 13.730469 C 7.511719 13.730469 8.289062 12.953125 8.289062 12 C 8.289062 11.046875 7.511719 10.269531 6.558594 10.269531 Z M 6.558594 10.269531 "/>
<path style=" stroke:none;fill-rule:nonzero;fill:rgb(0%,0%,0%);fill-opacity:1;" d="M 12 10.269531 C 11.046875 10.269531 10.269531 11.046875 10.269531 12 C 10.269531 12.953125 11.046875 13.730469 12 13.730469 C 12.953125 13.730469 13.730469 12.953125 13.730469 12 C 13.730469 11.046875 12.953125 10.269531 12 10.269531 Z M 12 10.269531 "/>
<path style=" stroke:none;fill-rule:nonzero;fill:rgb(0%,0%,0%);fill-opacity:1;" d="M 20.484375 3.515625 C 18.21875 1.25 15.207031 0 12 0 C 8.792969 0 5.78125 1.25 3.515625 3.515625 C 1.25 5.78125 0 8.792969 0 12 C 0 15.207031 1.25 18.21875 3.515625 20.484375 C 5.78125 22.75 8.792969 24 12 24 C 15.207031 24 18.21875 22.75 20.484375 20.484375 C 22.75 18.21875 24 15.207031 24 12 C 24 8.792969 22.75 5.78125 20.484375 3.515625 Z M 12 22.515625 C 6.203125 22.515625 1.484375 17.796875 1.484375 12 C 1.484375 6.203125 6.203125 1.484375 12 1.484375 C 17.796875 1.484375 22.515625 6.203125 22.515625 12 C 22.515625 17.796875 17.796875 22.515625 12 22.515625 Z M 12 22.515625 "/>
</g>
</svg>
