<?xml version="1.0" encoding="iso-8859-1"?>
<!-- Generator: Adobe Illustrator 18.1.1, SVG Export Plug-In . SVG Version: 6.00 Build 0)  -->
<svg version="1.1" id="Capa_1" xmlns="http://www.w3.org/2000/svg" xmlns:xlink="http://www.w3.org/1999/xlink" x="0px" y="0px"
	 viewBox="0 0 201.185 201.185" style="enable-background:new 0 0 201.185 201.185;" xml:space="preserve">
<g>
	<path style="fill:#010002;" d="M100.594,0.002C45.119,0.002,0,45.12,0,100.593c0,55.469,45.122,100.591,100.598,100.591
		c55.465,0,100.587-45.122,100.587-100.591C201.182,45.12,156.059,0.002,100.594,0.002z M73.094,81.471l0.204-0.225
		c0.82-0.598,1.22-1.528,1.07-2.505c-2.029-12.19-0.698-17.272-0.251-18.546c3.543-10.865,14.652-15.894,16.835-16.781
		c0.465-0.183,1.321-0.444,2.19-0.576l0.258-0.057l1.789-0.097l0.014,0.111l0.412-0.039c0.372-0.039,0.723-0.093,1.163-0.183
		l0.394-0.086c0.351,0.004,4.678,0.551,11.102,2.523l4.466,1.539c8.167,2.412,11.928,6.904,12.623,7.805
		c6.539,7.412,4.792,18.599,3.167,24.608c-0.183,0.709-0.075,1.439,0.329,2.044l0.372,0.458c0.476,0.644,0.898,3.128-0.523,8.407
		c-0.268,1.6-0.859,2.902-1.739,3.783c-0.329,0.358-0.551,0.812-0.637,1.321c-2.208,12.963-13.825,27.461-26.065,27.461
		c-10.386,0-22.243-13.342-24.376-27.45c-0.082-0.53-0.301-0.991-0.669-1.389c-0.891-0.916-1.453-2.244-1.797-4.209
		C72.4,85.683,72.293,82.709,73.094,81.471z M49.778,137.68c0.451-0.573,2.96-3.514,8.042-5.451
		c4.466-1.374,15.504-5.039,21.541-9.416c0.283-0.154,0.562-0.444,0.791-0.684c0.558-0.601,1.414-1.514,2.423-2.459l0.562-0.533
		l0.573,0.537c5.315,5.014,11.198,7.763,16.559,7.763c5.637,0,11.452-2.441,16.821-7.061l0.422-0.365l1.138,0.555
		c1.016,0.934,2.781,2.215,3.6,2.609l1.045,0.508l-0.107,0.115l0.465,0.283c0.988,0.598,2.065,1.177,3.335,1.804
		c1.278,0.562,2.344,0.981,3.454,1.342c0.93,0.301,5.898,1.972,11.549,4.585l1.077,0.322c5.522,2.115,7.977,5.053,8.224,5.361
		c6.553,9.72,9.072,27.854,10.006,37.961c-17.128,13.911-38.677,21.57-60.697,21.57c-22.035,0-43.587-7.662-60.708-21.573
		C40.81,165.377,43.304,147.297,49.778,137.68z M155.483,134.695l-0.347-0.404c-1.632-2.033-5.222-4.899-10.443-6.9l-0.823-0.247
		c-5.225-2.409-9.96-4.051-11.757-4.645l-0.14,0.412l0,0l0.036-0.444c-1.127-0.376-2.058-0.769-2.874-1.127
		c-5.952-2.924-6.71-4.627-6.839-5.021l-0.297-0.676l0.261-0.616c4.474-5.583,7.612-12.086,8.815-18.213l0.15-0.372
		c1.26-1.575,2.054-3.436,2.369-5.476c1.417-5.128,1.485-8.904,0.2-11.535l-0.122-0.268l0.068-0.293
		c1.589-6.642,3.114-19.097-4.513-27.754c-1.206-1.525-5.826-6.685-14.956-9.359l-4.438-1.525c-7.383-2.273-12-2.766-12.601-2.77
		l0,0c-0.497,0-0.913,0.047-1.539,0.193l-0.587,0.1c-0.308-0.047-0.644-0.072-0.998-0.072c-2.358,0-4.914,1.02-5.035,1.063
		c-2.555,1.07-15.543,7.065-19.655,19.791c-0.676,1.8-2.076,7.301-0.279,19.344l0.057,0.34l-0.211,0.283
		c-1.847,2.477-1.99,6.506-0.444,11.921c0.39,2.398,1.174,4.313,2.337,5.766l0.2,0.429c1.124,6.292,3.926,12.515,8.099,17.991
		l0.361,0.487l-0.329,0.49c-0.179,0.251-0.308,0.53-0.351,0.73c-1.031,2.931-12.544,8.07-22.647,11.159
		c-7.383,2.791-10.508,7.258-10.508,7.258c-6.259,9.291-9.126,24.923-10.44,36.723c-19.787-18.245-31.104-44.023-31.104-70.865
		c0-53.171,43.258-96.429,96.436-96.429c53.171,0,96.436,43.258,96.436,96.429c0,26.845-11.334,52.634-31.122,70.89
		C164.563,159.593,161.664,143.897,155.483,134.695z"/>
</g>
<g>
</g>
<g>
</g>
<g>
</g>
<g>
</g>
<g>
</g>
<g>
</g>
<g>
</g>
<g>
</g>
<g>
</g>
<g>
</g>
<g>
</g>
<g>
</g>
<g>
</g>
<g>
</g>
<g>
</g>
</svg>
