<?xml version="1.0" encoding="iso-8859-1"?>
<!-- Generator: Adobe Illustrator 18.0.0, SVG Export Plug-In . SVG Version: 6.00 Build 0)  -->
<!DOCTYPE svg PUBLIC "-//W3C//DTD SVG 1.1//EN" "http://www.w3.org/Graphics/SVG/1.1/DTD/svg11.dtd">
<svg version="1.1" id="Capa_1" xmlns="http://www.w3.org/2000/svg" xmlns:xlink="http://www.w3.org/1999/xlink" x="0px" y="0px"
	 viewBox="0 0 192.804 192.804" style="enable-background:new 0 0 192.804 192.804;" xml:space="preserve">
<path d="M10.607,192.803l62.401-62.402c13.063,10.67,29.263,16.475,46.356,16.475c0.002,0,0.001,0,0.002,0
	c19.614,0,38.058-7.639,51.927-21.509c13.871-13.87,21.511-32.313,21.51-51.931c-0.001-19.616-7.64-38.058-21.509-51.928
	C157.425,7.639,138.982,0,119.365,0C99.749,0,81.307,7.639,67.437,21.509C53.565,35.38,45.927,53.823,45.928,73.44
	c0,17.094,5.805,33.294,16.475,46.355L0,182.197L10.607,192.803z M60.928,73.44c-0.001-15.611,6.078-30.287,17.116-41.324
	C89.081,21.078,103.756,15,119.365,15c15.61,0,30.285,6.078,41.322,17.115s17.116,25.712,17.116,41.322
	c0,15.611-6.078,30.286-17.116,41.324c-11.037,11.038-25.712,17.116-41.321,17.116c-15.61-0.001-30.286-6.079-41.323-17.116
	C67.006,103.724,60.928,89.05,60.928,73.44z"/>
<g>
</g>
<g>
</g>
<g>
</g>
<g>
</g>
<g>
</g>
<g>
</g>
<g>
</g>
<g>
</g>
<g>
</g>
<g>
</g>
<g>
</g>
<g>
</g>
<g>
</g>
<g>
</g>
<g>
</g>
</svg>
