<?xml version="1.0" encoding="iso-8859-1"?>
<!-- Generator: Adobe Illustrator 19.0.0, SVG Export Plug-In . SVG Version: 6.00 Build 0)  -->
<svg version="1.1" id="Layer_1" xmlns="http://www.w3.org/2000/svg" xmlns:xlink="http://www.w3.org/1999/xlink" x="0px" y="0px"
	 viewBox="0 0 480 480" style="enable-background:new 0 0 480 480;" xml:space="preserve">
<ellipse style="fill:#FCB641;" cx="350.968" cy="127.968" rx="126.968" ry="127.968"/>
<g>
	<circle style="fill:#BEDDE5;" cx="80" cy="408" r="24"/>
	<circle style="fill:#BEDDE5;" cx="240" cy="456" r="24"/>
	<circle style="fill:#BEDDE5;" cx="384" cy="408" r="24"/>
</g>
<path style="fill:#92C7D3;" d="M426.208,235.448c-1.12,0-42.648,0-42.648,0c0.744-7.768,1.24-8.768,1.256-13.408
	c0.128-41.424-28.36-77.776-70.032-86.688c-23.752-5.08-46.424-1.408-65.184,8.416c-22.888-33.072-60.808-55.408-104.272-57.992
	c-5.592-0.744-11.256-1.208-17.056-1.208C57.432,84.576,0,142.096,0,213.016c0,36.952,15.688,70.184,40.648,93.608
	c22.072,23.768,52.72,39.128,89.008,41.688c0,0,295.432,1.424,296.552,1.424c29.712,0,53.792-26.088,53.792-57.144
	S455.912,235.448,426.208,235.448z"/>
<g>
</g>
<g>
</g>
<g>
</g>
<g>
</g>
<g>
</g>
<g>
</g>
<g>
</g>
<g>
</g>
<g>
</g>
<g>
</g>
<g>
</g>
<g>
</g>
<g>
</g>
<g>
</g>
<g>
</g>
</svg>
